<svg xmlns="http://www.w3.org/2000/svg" width="89" height="26" viewBox="0 0 89 26" fill="none">
  <path d="M14.743 0H19.2205L22.9699 25.7143H17.8008L16.9999 19.3038H8.66376L5.16914 25.7143H0L14.743 0ZM16.8907 15.7907L16.9817 0L10.2291 15.7907H16.8907Z" fill="white"/>
  <path d="M35.8555 0H44.8789L43.9324 4.38229H32.3929L31.0096 11.0101H42.7126L41.9983 15.0664H30.1359L27.8426 25.7143H22.8555L25.6038 12.8571L35.8555 0Z" fill="white"/>
  <path d="M60.9264 0H65.9136L60.4168 25.6781H55.4297L60.9264 0Z" fill="white"/>
  <path d="M71.673 13.0382L65.7759 0H71.2362L75.0949 9.56137L83.0306 0H88.4545L76.9878 13.0382L82.6666 25.7143H77.2426L73.6024 16.5151L66.0307 25.7143H60.5703L71.673 13.0382Z" fill="white"/>
  <path d="M44.6413 0H69.716L67.8588 4.38229H48.682L47.2987 11.0101H58.5731L57.716 15.0664H46.425L44.1317 25.7143H39.1445L41.8929 12.8571L44.6413 0Z" fill="white"/>
</svg>